<?xml version="1.0" encoding="iso-8859-1"?>
<!-- Generator: Adobe Illustrator 21.1.0, SVG Export Plug-In . SVG Version: 6.00 Build 0)  -->
<svg xmlns="http://www.w3.org/2000/svg" xmlns:xlink="http://www.w3.org/1999/xlink" version="1.1" id="Layer_1" x="0px" y="0px" viewBox="0 0 64 64" style="enable-background:new 0 0 64 64;" xml:space="preserve">
<g>
	<path style="fill:#CDA1A7;" d="M59,61H5c-1.105,0-2-0.895-2-2V45h19.313L26,49h12.438L42,45h19v14C61,60.105,60.105,61,59,61z"/>
	<g>
		<path style="fill:#DEB4BA;" d="M4,48h21.078l-1.843-2H4c-0.552,0-1,0.448-1,1C3,47.552,3.448,48,4,48z"/>
		<path style="fill:#DEB4BA;" d="M60,46H41.11l-1.781,2H60c0.552,0,1-0.448,1-1C61,46.448,60.552,46,60,46z"/>
	</g>
	<polygon style="fill:#ACB7D0;" points="61,45 42,45 37,49 27,49 22.313,45 3,45 11,13 53,13  "/>
	<circle style="fill:#F9E3AE;" cx="33.5" cy="10.5" r="7.5"/>
	<circle style="fill:#F6D397;" cx="24" cy="16" r="9"/>
	<circle style="fill:#F9E3AE;" cx="33" cy="29" r="12"/>
	<g>
		<path style="fill:#8D6C9F;" d="M61.83,42.24l-7.47-28.01c-0.35-1.31-1.54-2.23-2.9-2.23h-9.59c0.08-0.49,0.13-0.99,0.13-1.5    C42,5.81,38.19,2,33.5,2c-3.14,0-5.88,1.7-7.35,4.24C25.46,6.08,24.74,6,24,6c-4.09,0-7.62,2.47-9.16,6h-2.3    c-1.36,0-2.55,0.92-2.9,2.23L2.17,42.24C2.06,42.65,2,43.09,2,43.52V59c0,1.65,1.35,3,3,3h54c1.65,0,3-1.35,3-3V43.52    C62,43.09,61.94,42.65,61.83,42.24z M33.5,4c3.58,0,6.5,2.92,6.5,6.5c0,0.52-0.06,1.02-0.18,1.5c-0.17,0.72-0.46,1.4-0.85,2    c-0.67,1.04-1.63,1.88-2.76,2.4c-0.71-0.18-1.45-0.3-2.21-0.36V16c0-0.69-0.07-1.36-0.2-2c-0.14-0.7-0.36-1.37-0.64-2    c-0.99-2.27-2.8-4.1-5.06-5.11C29.27,5.15,31.25,4,33.5,4z M22.45,25.88c0.2-0.67,0.46-1.31,0.77-1.92    c1.64-3.18,4.79-5.45,8.5-5.88C32.14,18.03,32.57,18,33,18c0.26,0,0.53,0.01,0.79,0.03c0.88,0.06,1.73,0.23,2.54,0.48    C40.77,19.93,44,24.09,44,29c0,6.07-4.93,11-11,11s-11-4.93-11-11C22,27.91,22.16,26.87,22.45,25.88z M24,8    c0.46,0,0.9,0.04,1.34,0.11c0.67,0.12,1.32,0.31,1.92,0.58c1.54,0.7,2.82,1.86,3.66,3.31c0.36,0.62,0.64,1.29,0.83,2    c0.16,0.64,0.25,1.31,0.25,2v0.04c-4.77,0.36-8.83,3.32-10.78,7.46C18.17,22.36,16,19.43,16,16c0-0.69,0.09-1.36,0.25-2    c0.19-0.71,0.47-1.38,0.83-2C18.46,9.61,21.05,8,24,8z M4.1,42.75l7.47-28.01c0.12-0.43,0.51-0.74,0.97-0.74h1.66    c-0.13,0.64-0.2,1.31-0.2,2c0,4.29,2.72,7.96,6.52,9.37C20.18,26.52,20,27.74,20,29c0,7.17,5.83,13,13,13s13-5.83,13-13    c0-5.15-3.01-9.61-7.37-11.72c1.12-0.85,2.03-1.98,2.61-3.28h10.22c0.46,0,0.85,0.31,0.97,0.74l7.47,28.01    C59.97,43,60,43.26,60,43.52V44H42.828c-0.801,0-1.555,0.312-2.121,0.879l-2.828,2.828C37.692,47.893,37.435,48,37.172,48H26.828    c-0.263,0-0.521-0.107-0.707-0.293l-2.828-2.828C22.727,44.312,21.973,44,21.172,44H4v-0.48C4,43.26,4.03,43,4.1,42.75z M59,60H5    c-0.55,0-1-0.45-1-1V46h17.172c0.263,0,0.521,0.107,0.707,0.293l2.828,2.828C25.273,49.688,26.027,50,26.828,50h10.344    c0.801,0,1.555-0.312,2.121-0.879l2.828-2.828C42.308,46.107,42.565,46,42.828,46H60v13C60,59.55,59.55,60,59,60z"/>
		<path style="fill:#8D6C9F;" d="M7,52c-0.553,0-1,0.448-1,1v2c0,0.552,0.447,1,1,1s1-0.448,1-1v-2C8,52.448,7.553,52,7,52z"/>
		<path style="fill:#8D6C9F;" d="M12,52c-0.553,0-1,0.448-1,1v2c0,0.552,0.447,1,1,1s1-0.448,1-1v-2C13,52.448,12.553,52,12,52z"/>
		<path style="fill:#8D6C9F;" d="M17,52c-0.553,0-1,0.448-1,1v2c0,0.552,0.447,1,1,1s1-0.448,1-1v-2C18,52.448,17.553,52,17,52z"/>
		<path style="fill:#8D6C9F;" d="M22,52c-0.553,0-1,0.448-1,1v2c0,0.552,0.447,1,1,1s1-0.448,1-1v-2C23,52.448,22.553,52,22,52z"/>
		<path style="fill:#8D6C9F;" d="M27,52c-0.553,0-1,0.448-1,1v2c0,0.552,0.447,1,1,1s1-0.448,1-1v-2C28,52.448,27.553,52,27,52z"/>
		<path style="fill:#8D6C9F;" d="M32,52c-0.553,0-1,0.448-1,1v2c0,0.552,0.447,1,1,1s1-0.448,1-1v-2C33,52.448,32.553,52,32,52z"/>
		<path style="fill:#8D6C9F;" d="M37,52c-0.553,0-1,0.448-1,1v2c0,0.552,0.447,1,1,1s1-0.448,1-1v-2C38,52.448,37.553,52,37,52z"/>
		<path style="fill:#8D6C9F;" d="M42,52c-0.553,0-1,0.448-1,1v2c0,0.552,0.447,1,1,1s1-0.448,1-1v-2C43,52.448,42.553,52,42,52z"/>
		<path style="fill:#8D6C9F;" d="M47,52c-0.553,0-1,0.448-1,1v2c0,0.552,0.447,1,1,1s1-0.448,1-1v-2C48,52.448,47.553,52,47,52z"/>
		<path style="fill:#8D6C9F;" d="M52,52c-0.553,0-1,0.448-1,1v2c0,0.552,0.447,1,1,1s1-0.448,1-1v-2C53,52.448,52.553,52,52,52z"/>
		<path style="fill:#8D6C9F;" d="M57,52c-0.553,0-1,0.448-1,1v2c0,0.552,0.447,1,1,1s1-0.448,1-1v-2C58,52.448,57.553,52,57,52z"/>
		<path style="fill:#8D6C9F;" d="M19,17c0.553,0,1-0.448,1-1c0-2.206,1.794-4,4-4c0.553,0,1-0.448,1-1s-0.447-1-1-1    c-3.309,0-6,2.691-6,6C18,16.552,18.447,17,19,17z"/>
		<path style="fill:#8D6C9F;" d="M33,31c-0.553,0-1,0.448-1,1v2c-1.103,0-2-0.897-2-2c0-0.552-0.447-1-1-1s-1,0.448-1,1    c0,2.206,1.794,4,4,4v1c0,0.552,0.447,1,1,1s1-0.448,1-1v-1c2.206,0,4-1.794,4-4s-1.794-4-4-4v-2c0-0.552-0.447-1-1-1    s-1,0.448-1,1v2c-1.103,0-2-0.897-2-2s0.897-2,2-2h2c1.103,0,2,0.897,2,2c0,0.552,0.447,1,1,1s1-0.448,1-1c0-2.206-1.794-4-4-4v-1    c0-0.552-0.447-1-1-1s-1,0.448-1,1v1c-2.206,0-4,1.794-4,4s1.794,4,4,4h2c1.103,0,2,0.897,2,2s-0.897,2-2,2v-2    C34,31.448,33.553,31,33,31z"/>
	</g>
</g>
</svg>
